<?xml version="1.0" encoding="UTF-8" standalone="no"?>
<!DOCTYPE svg PUBLIC "-//W3C//DTD SVG 1.1//EN"
 "http://www.w3.org/Graphics/SVG/1.1/DTD/svg11.dtd">
<!-- Generated by graphviz version 2.43.0 (0)
 -->
<!-- Title: G Pages: 1 -->
<svg width="1034pt" height="297pt"
 viewBox="0.00 0.00 1034.00 297.00" xmlns="http://www.w3.org/2000/svg" xmlns:xlink="http://www.w3.org/1999/xlink">
<g id="graph0" class="graph" transform="scale(1 1) rotate(0) translate(4 293)">
<title>G</title>
<polygon fill="lightgray" stroke="transparent" points="-4,4 -4,-293 1030,-293 1030,4 -4,4"/>
<g id="clust1" class="cluster">
<title>cluster Map</title>
<polygon fill="lightgray" stroke="black" stroke-dasharray="1,5" points="8,-8 8,-281 1018,-281 1018,-8 8,-8"/>
<text text-anchor="middle" x="513" y="-265.8" font-family="Arial" font-size="14.00">SS14 Codebases Roadmap</text>
</g>
<g id="clust2" class="cluster">
<title>cluster_note</title>
<polygon fill="lightgray" stroke="black" stroke-dasharray="1,5" points="164,-152 164,-250 1010,-250 1010,-152 164,-152"/>
<text text-anchor="middle" x="587" y="-234.8" font-family="Arial" font-size="14.00">Notes about tree</text>
</g>
<!-- note1 -->
<g id="node1" class="node">
<title>note1</title>
<polygon fill="none" stroke="black" points="1002,-218.5 326,-218.5 326,-160.5 1002,-160.5 1002,-218.5"/>
<text text-anchor="start" x="334" y="-185.8" font-family="Times,serif" font-size="14.00">Red arrows indicate that the child is not a fork of a parent, rather a new version or rebrand.</text>
</g>
<!-- note2 -->
<g id="node2" class="node">
<title>note2</title>
<g id="a_node2"><a xlink:href="https://github.com/Noliuss/SS14-Codebases" xlink:title="&lt;b&gt;&lt;u&gt;GitHub source &lt;br/&gt;repository&lt;/u&gt;&lt;/b&gt;">
<polygon fill="none" stroke="black" points="172,-160.5 172,-218.5 308,-218.5 308,-160.5 172,-160.5"/>
<text text-anchor="start" x="180" y="-193.3" font-family="Times,serif" font-weight="bold" text-decoration="underline" font-size="14.00" fill="blue">GitHub source </text>
<text text-anchor="start" x="199.5" y="-179.3" font-family="Times,serif" font-weight="bold" text-decoration="underline" font-size="14.00" fill="blue">repository</text>
</a>
</g>
</g>
<!-- Space Station 14 -->
<g id="node3" class="node">
<title>Space Station 14</title>
<polygon fill="none" stroke="blue" points="154,-207.5 16,-207.5 16,-171.5 154,-171.5 154,-207.5"/>
<text text-anchor="middle" x="85" y="-185.8" font-family="Times,serif" font-size="14.00">Space Station 14</text>
</g>
<!-- Nyanotrasen -->
<g id="node5" class="node">
<title>Nyanotrasen</title>
<ellipse fill="none" stroke="black" cx="86" cy="-106" rx="70.39" ry="18"/>
<text text-anchor="middle" x="86" y="-102.3" font-family="Times,serif" font-size="14.00">Nyanotrasen</text>
</g>
<!-- Space Station 14&#45;&gt;Nyanotrasen -->
<g id="edge1" class="edge">
<title>Space Station 14&#45;&gt;Nyanotrasen</title>
<path fill="none" stroke="black" d="M85.21,-171.22C85.34,-160.52 85.51,-146.55 85.66,-134.37"/>
<polygon fill="black" stroke="black" points="85.79,-124.26 90.17,-134.31 85.73,-129.26 85.67,-134.26 85.67,-134.26 85.67,-134.26 85.73,-129.26 81.17,-134.2 85.79,-124.26 85.79,-124.26"/>
</g>
<!-- Delta&#45;V -->
<g id="node6" class="node">
<title>Delta&#45;V</title>
<ellipse fill="none" stroke="black" cx="218" cy="-106" rx="44.39" ry="18"/>
<text text-anchor="middle" x="218" y="-102.3" font-family="Times,serif" font-size="14.00">Delta&#45;V</text>
</g>
<!-- Space Station 14&#45;&gt;Delta&#45;V -->
<g id="edge2" class="edge">
<title>Space Station 14&#45;&gt;Delta&#45;V</title>
<path fill="none" stroke="black" d="M112.88,-171.41C134.17,-158.37 163.54,-140.37 185.83,-126.72"/>
<polygon fill="black" stroke="black" points="194.59,-121.34 188.42,-130.4 190.33,-123.96 186.07,-126.57 186.07,-126.57 186.07,-126.57 190.33,-123.96 183.72,-122.73 194.59,-121.34 194.59,-121.34"/>
</g>
<!-- Frontier Station 14 -->
<g id="node7" class="node">
<title>Frontier Station 14</title>
<ellipse fill="none" stroke="black" cx="381" cy="-106" rx="100.98" ry="18"/>
<text text-anchor="middle" x="381" y="-102.3" font-family="Times,serif" font-size="14.00">Frontier Station 14</text>
</g>
<!-- Space Station 14&#45;&gt;Frontier Station 14 -->
<g id="edge4" class="edge">
<title>Space Station 14&#45;&gt;Frontier Station 14</title>
<path fill="none" stroke="black" d="M115.64,-171.42C128.95,-164.57 144.91,-157.11 160,-152 185.95,-143.2 249.6,-130.57 301.96,-120.93"/>
<polygon fill="black" stroke="black" points="311.93,-119.1 302.9,-125.33 307.01,-120 302.09,-120.9 302.09,-120.9 302.09,-120.9 307.01,-120 301.28,-116.48 311.93,-119.1 311.93,-119.1"/>
</g>
<!-- Mining Station 14 -->
<g id="node8" class="node">
<title>Mining Station 14</title>
<ellipse fill="none" stroke="black" cx="595" cy="-106" rx="94.78" ry="18"/>
<text text-anchor="middle" x="595" y="-102.3" font-family="Times,serif" font-size="14.00">Mining Station 14</text>
</g>
<!-- Space Station 14&#45;&gt;Mining Station 14 -->
<g id="edge5" class="edge">
<title>Space Station 14&#45;&gt;Mining Station 14</title>
<path fill="none" stroke="black" d="M113.94,-171.31C127.47,-164.1 144.08,-156.38 160,-152 302.34,-112.81 344.48,-142.14 491,-124 499.64,-122.93 508.66,-121.67 517.63,-120.33"/>
<polygon fill="black" stroke="black" points="527.7,-118.78 518.49,-124.75 522.75,-119.54 517.81,-120.3 517.81,-120.3 517.81,-120.3 522.75,-119.54 517.13,-115.85 527.7,-118.78 527.7,-118.78"/>
</g>
<!-- Ekrixi -->
<g id="node9" class="node">
<title>Ekrixi</title>
<ellipse fill="none" stroke="black" cx="746" cy="-106" rx="38.19" ry="18"/>
<text text-anchor="middle" x="746" y="-102.3" font-family="Times,serif" font-size="14.00">Ekrixi</text>
</g>
<!-- Space Station 14&#45;&gt;Ekrixi -->
<g id="edge6" class="edge">
<title>Space Station 14&#45;&gt;Ekrixi</title>
<path fill="none" stroke="black" d="M113.16,-171.46C126.81,-164.08 143.73,-156.2 160,-152 392.28,-92.09 463.88,-171.53 699,-124 702.19,-123.36 705.45,-122.53 708.7,-121.6"/>
<polygon fill="black" stroke="black" points="718.3,-118.54 710.14,-125.87 713.54,-120.06 708.78,-121.58 708.78,-121.58 708.78,-121.58 713.54,-120.06 707.41,-117.29 718.3,-118.54 718.3,-118.54"/>
</g>
<!-- Blep Station -->
<g id="node10" class="node">
<title>Blep Station</title>
<ellipse fill="none" stroke="black" cx="871" cy="-106" rx="68.49" ry="18"/>
<text text-anchor="middle" x="871" y="-102.3" font-family="Times,serif" font-size="14.00">Blep Station</text>
</g>
<!-- Space Station 14&#45;&gt;Blep Station -->
<g id="edge7" class="edge">
<title>Space Station 14&#45;&gt;Blep Station</title>
<path fill="none" stroke="black" d="M113.15,-171.4C126.79,-164.01 143.72,-156.13 160,-152 296.48,-117.36 653.37,-142.17 793,-124 799.56,-123.15 806.38,-122.02 813.14,-120.75"/>
<polygon fill="black" stroke="black" points="822.96,-118.81 814.02,-125.17 818.05,-119.78 813.15,-120.75 813.15,-120.75 813.15,-120.75 818.05,-119.78 812.28,-116.34 822.96,-118.81 822.96,-118.81"/>
</g>
<!-- Einstein Engines (AGPLv3) -->
<g id="node4" class="node">
<title>Einstein Engines (AGPLv3)</title>
<polygon fill="none" stroke="blue" points="323,-52 113,-52 113,-16 323,-16 323,-52"/>
<text text-anchor="middle" x="218" y="-30.3" font-family="Times,serif" font-size="14.00">Einstein Engines (AGPLv3)</text>
</g>
<!-- Delta&#45;V&#45;&gt;Einstein Engines (AGPLv3) -->
<g id="edge3" class="edge">
<title>Delta&#45;V&#45;&gt;Einstein Engines (AGPLv3)</title>
<path fill="none" stroke="black" d="M218,-87.7C218,-79.98 218,-70.71 218,-62.11"/>
<polygon fill="black" stroke="black" points="218,-52.1 222.5,-62.1 218,-57.1 218,-62.1 218,-62.1 218,-62.1 218,-57.1 213.5,-62.1 218,-52.1 218,-52.1"/>
</g>
</g>
</svg>
