<?xml version="1.0" encoding="UTF-8" standalone="no"?>
<!DOCTYPE svg PUBLIC "-//W3C//DTD SVG 1.1//EN"
 "http://www.w3.org/Graphics/SVG/1.1/DTD/svg11.dtd">
<!-- Generated by graphviz version 2.43.0 (0)
 -->
<!-- Title: G Pages: 1 -->
<svg width="5071pt" height="441pt"
 viewBox="0.00 0.00 5071.00 441.00" xmlns="http://www.w3.org/2000/svg" xmlns:xlink="http://www.w3.org/1999/xlink">
<g id="graph0" class="graph" transform="scale(1 1) rotate(0) translate(4 437)">
<title>G</title>
<polygon fill="lightgray" stroke="transparent" points="-4,4 -4,-437 5067,-437 5067,4 -4,4"/>
<g id="clust1" class="cluster">
<title>cluster Map</title>
<polygon fill="lightgray" stroke="black" stroke-dasharray="1,5" points="8,-8 8,-425 5055,-425 5055,-8 8,-8"/>
<text text-anchor="middle" x="2531.5" y="-409.8" font-family="Arial" font-size="14.00">SS14 Codebases Roadmap</text>
</g>
<g id="clust2" class="cluster">
<title>cluster_note</title>
<polygon fill="lightgray" stroke="black" stroke-dasharray="1,5" points="3499,-296 3499,-394 4345,-394 4345,-296 3499,-296"/>
<text text-anchor="middle" x="3922" y="-378.8" font-family="Arial" font-size="14.00">Notes about tree</text>
</g>
<!-- note1 -->
<g id="node1" class="node">
<title>note1</title>
<polygon fill="none" stroke="black" points="4337,-362.5 3661,-362.5 3661,-304.5 4337,-304.5 4337,-362.5"/>
<text text-anchor="start" x="3669" y="-329.8" font-family="Times,serif" font-size="14.00">Red arrows indicate that the child is not a fork of a parent, rather a new version or rebrand.</text>
</g>
<!-- note2 -->
<g id="node2" class="node">
<title>note2</title>
<g id="a_node2"><a xlink:href="https://github.com/Noliuss/SS14-Codebases" xlink:title="&lt;b&gt;&lt;u&gt;GitHub source &lt;br/&gt;repository&lt;/u&gt;&lt;/b&gt;">
<polygon fill="none" stroke="black" points="3507,-304.5 3507,-362.5 3643,-362.5 3643,-304.5 3507,-304.5"/>
<text text-anchor="start" x="3515" y="-337.3" font-family="Times,serif" font-weight="bold" text-decoration="underline" font-size="14.00" fill="blue">GitHub source </text>
<text text-anchor="start" x="3534.5" y="-323.3" font-family="Times,serif" font-weight="bold" text-decoration="underline" font-size="14.00" fill="blue">repository</text>
</a>
</g>
</g>
<!-- Space Station 14 -->
<g id="node3" class="node">
<title>Space Station 14</title>
<polygon fill="none" stroke="blue" points="2710,-351.5 2572,-351.5 2572,-315.5 2710,-315.5 2710,-351.5"/>
<text text-anchor="middle" x="2641" y="-329.8" font-family="Times,serif" font-size="14.00">Space Station 14</text>
</g>
<!-- Corvax -->
<g id="node5" class="node">
<title>Corvax</title>
<ellipse fill="none" stroke="black" cx="60" cy="-250" rx="43.59" ry="18"/>
<text text-anchor="middle" x="60" y="-246.3" font-family="Times,serif" font-size="14.00">Corvax</text>
</g>
<!-- Space Station 14&#45;&gt;Corvax -->
<g id="edge29" class="edge">
<title>Space Station 14&#45;&gt;Corvax</title>
<path fill="none" stroke="black" d="M2571.78,-331.91C2191.14,-328.5 361.01,-310.05 113,-268 109.09,-267.34 105.08,-266.45 101.09,-265.43"/>
<polygon fill="black" stroke="black" points="91.3,-262.66 102.15,-261.05 96.11,-264.02 100.92,-265.38 100.92,-265.38 100.92,-265.38 96.11,-264.02 99.7,-269.71 91.3,-262.66 91.3,-262.66"/>
</g>
<!-- Delta&#45;V -->
<g id="node16" class="node">
<title>Delta&#45;V</title>
<ellipse fill="none" stroke="black" cx="166" cy="-250" rx="44.39" ry="18"/>
<text text-anchor="middle" x="166" y="-246.3" font-family="Times,serif" font-size="14.00">Delta&#45;V</text>
</g>
<!-- Space Station 14&#45;&gt;Delta&#45;V -->
<g id="edge32" class="edge">
<title>Space Station 14&#45;&gt;Delta&#45;V</title>
<path fill="none" stroke="black" d="M2571.97,-331.83C2201.4,-328.07 456.01,-308.32 219,-268 215.14,-267.34 211.18,-266.47 207.25,-265.47"/>
<polygon fill="black" stroke="black" points="197.59,-262.74 208.43,-261.12 202.4,-264.1 207.21,-265.45 207.21,-265.45 207.21,-265.45 202.4,-264.1 205.99,-269.79 197.59,-262.74 197.59,-262.74"/>
</g>
<!-- Frontier Station 14 -->
<g id="node24" class="node">
<title>Frontier Station 14</title>
<ellipse fill="none" stroke="black" cx="329" cy="-250" rx="100.98" ry="18"/>
<text text-anchor="middle" x="329" y="-246.3" font-family="Times,serif" font-size="14.00">Frontier Station 14</text>
</g>
<!-- Space Station 14&#45;&gt;Frontier Station 14 -->
<g id="edge35" class="edge">
<title>Space Station 14&#45;&gt;Frontier Station 14</title>
<path fill="none" stroke="black" d="M2571.89,-331.63C2246.82,-327.37 867.95,-307.28 439,-268 429.11,-267.09 418.77,-265.87 408.54,-264.49"/>
<polygon fill="black" stroke="black" points="398.37,-263.06 408.9,-259.99 403.33,-263.75 408.28,-264.45 408.28,-264.45 408.28,-264.45 403.33,-263.75 407.65,-268.91 398.37,-263.06 398.37,-263.06"/>
</g>
<!-- Afterlight: 3149 -->
<g id="node31" class="node">
<title>Afterlight: 3149</title>
<ellipse fill="none" stroke="black" cx="533" cy="-250" rx="85.29" ry="18"/>
<text text-anchor="middle" x="533" y="-246.3" font-family="Times,serif" font-size="14.00">Afterlight: 3149</text>
</g>
<!-- Space Station 14&#45;&gt;Afterlight: 3149 -->
<g id="edge25" class="edge">
<title>Space Station 14&#45;&gt;Afterlight: 3149</title>
<path fill="none" stroke="black" d="M2571.99,-331.63C2264.48,-327.57 1017.15,-308.84 628,-268 619.68,-267.13 610.98,-265.95 602.38,-264.61"/>
<polygon fill="black" stroke="black" points="592.36,-262.99 602.95,-260.15 597.29,-263.79 602.23,-264.59 602.23,-264.59 602.23,-264.59 597.29,-263.79 601.51,-269.03 592.36,-262.99 592.36,-262.99"/>
</g>
<!-- Apocalypse Station -->
<g id="node32" class="node">
<title>Apocalypse Station</title>
<ellipse fill="none" stroke="black" cx="736" cy="-250" rx="99.38" ry="18"/>
<text text-anchor="middle" x="736" y="-246.3" font-family="Times,serif" font-size="14.00">Apocalypse Station</text>
</g>
<!-- Space Station 14&#45;&gt;Apocalypse Station -->
<g id="edge26" class="edge">
<title>Space Station 14&#45;&gt;Apocalypse Station</title>
<path fill="none" stroke="black" d="M2571.88,-332.97C2332.3,-333.96 1515.49,-332.1 845,-268 835.28,-267.07 825.1,-265.84 815.04,-264.46"/>
<polygon fill="black" stroke="black" points="805.04,-263.03 815.57,-259.99 809.99,-263.74 814.94,-264.44 814.94,-264.44 814.94,-264.44 809.99,-263.74 814.3,-268.9 805.04,-263.03 805.04,-263.03"/>
</g>
<!-- Blep Station -->
<g id="node33" class="node">
<title>Blep Station</title>
<ellipse fill="none" stroke="black" cx="922" cy="-250" rx="68.49" ry="18"/>
<text text-anchor="middle" x="922" y="-246.3" font-family="Times,serif" font-size="14.00">Blep Station</text>
</g>
<!-- Space Station 14&#45;&gt;Blep Station -->
<g id="edge27" class="edge">
<title>Space Station 14&#45;&gt;Blep Station</title>
<path fill="none" stroke="black" d="M2571.65,-331.42C2300.32,-326.95 1310.42,-308.17 999,-268 992.76,-267.2 986.28,-266.13 979.85,-264.93"/>
<polygon fill="black" stroke="black" points="969.83,-262.94 980.51,-260.47 974.73,-263.91 979.63,-264.89 979.63,-264.89 979.63,-264.89 974.73,-263.91 978.76,-269.3 969.83,-262.94 969.83,-262.94"/>
</g>
<!-- Cosmatic Drift -->
<g id="node34" class="node">
<title>Cosmatic Drift</title>
<ellipse fill="none" stroke="black" cx="1087" cy="-250" rx="78.79" ry="18"/>
<text text-anchor="middle" x="1087" y="-246.3" font-family="Times,serif" font-size="14.00">Cosmatic Drift</text>
</g>
<!-- Space Station 14&#45;&gt;Cosmatic Drift -->
<g id="edge28" class="edge">
<title>Space Station 14&#45;&gt;Cosmatic Drift</title>
<path fill="none" stroke="black" d="M2571.64,-333.05C2360.9,-333.96 1709.79,-331.07 1175,-268 1167.59,-267.13 1159.86,-265.98 1152.2,-264.7"/>
<polygon fill="black" stroke="black" points="1142.2,-262.95 1152.83,-260.24 1147.12,-263.81 1152.05,-264.67 1152.05,-264.67 1152.05,-264.67 1147.12,-263.81 1151.27,-269.11 1142.2,-262.95 1142.2,-262.95"/>
</g>
<!-- Crystall Punk 14 -->
<g id="node35" class="node">
<title>Crystall Punk 14</title>
<ellipse fill="none" stroke="black" cx="1272" cy="-250" rx="88.28" ry="18"/>
<text text-anchor="middle" x="1272" y="-246.3" font-family="Times,serif" font-size="14.00">Crystall Punk 14</text>
</g>
<!-- Space Station 14&#45;&gt;Crystall Punk 14 -->
<g id="edge30" class="edge">
<title>Space Station 14&#45;&gt;Crystall Punk 14</title>
<path fill="none" stroke="black" d="M2571.88,-331.93C2380.33,-329.71 1826.72,-319.01 1370,-268 1361.46,-267.05 1352.53,-265.82 1343.7,-264.46"/>
<polygon fill="black" stroke="black" points="1333.79,-262.89 1344.37,-260.02 1338.72,-263.67 1343.66,-264.46 1343.66,-264.46 1343.66,-264.46 1338.72,-263.67 1342.95,-268.9 1333.79,-262.89 1333.79,-262.89"/>
</g>
<!-- Cube Station -->
<g id="node36" class="node">
<title>Cube Station</title>
<ellipse fill="none" stroke="black" cx="1450" cy="-250" rx="71.49" ry="18"/>
<text text-anchor="middle" x="1450" y="-246.3" font-family="Times,serif" font-size="14.00">Cube Station</text>
</g>
<!-- Space Station 14&#45;&gt;Cube Station -->
<g id="edge31" class="edge">
<title>Space Station 14&#45;&gt;Cube Station</title>
<path fill="none" stroke="black" d="M2571.75,-332.11C2396.51,-330.35 1921.58,-320.66 1530,-268 1523.63,-267.14 1517.01,-266.06 1510.42,-264.85"/>
<polygon fill="black" stroke="black" points="1500.15,-262.87 1510.83,-260.35 1505.06,-263.82 1509.97,-264.76 1509.97,-264.76 1509.97,-264.76 1505.06,-263.82 1509.12,-269.18 1500.15,-262.87 1500.15,-262.87"/>
</g>
<!-- Earth 3000 -->
<g id="node37" class="node">
<title>Earth 3000</title>
<ellipse fill="none" stroke="black" cx="1603" cy="-250" rx="63.89" ry="18"/>
<text text-anchor="middle" x="1603" y="-246.3" font-family="Times,serif" font-size="14.00">Earth 3000</text>
</g>
<!-- Space Station 14&#45;&gt;Earth 3000 -->
<g id="edge33" class="edge">
<title>Space Station 14&#45;&gt;Earth 3000</title>
<path fill="none" stroke="black" d="M2571.85,-331.71C2412.82,-329.07 2009.2,-317.6 1676,-268 1670.23,-267.14 1664.24,-266.06 1658.28,-264.86"/>
<polygon fill="black" stroke="black" points="1648.34,-262.76 1659.06,-260.43 1653.23,-263.79 1658.13,-264.83 1658.13,-264.83 1658.13,-264.83 1653.23,-263.79 1657.19,-269.23 1648.34,-262.76 1648.34,-262.76"/>
</g>
<!-- Ekrixi -->
<g id="node38" class="node">
<title>Ekrixi</title>
<ellipse fill="none" stroke="black" cx="1723" cy="-250" rx="38.19" ry="18"/>
<text text-anchor="middle" x="1723" y="-246.3" font-family="Times,serif" font-size="14.00">Ekrixi</text>
</g>
<!-- Space Station 14&#45;&gt;Ekrixi -->
<g id="edge34" class="edge">
<title>Space Station 14&#45;&gt;Ekrixi</title>
<path fill="none" stroke="black" d="M2571.87,-329.75C2393.98,-322.3 1923.66,-300.09 1771,-268 1767.61,-267.29 1764.13,-266.39 1760.67,-265.39"/>
<polygon fill="black" stroke="black" points="1751.07,-262.34 1761.96,-261.08 1755.83,-263.86 1760.6,-265.37 1760.6,-265.37 1760.6,-265.37 1755.83,-263.86 1759.24,-269.66 1751.07,-262.34 1751.07,-262.34"/>
</g>
<!-- Goob Station -->
<g id="node39" class="node">
<title>Goob Station</title>
<ellipse fill="none" stroke="black" cx="1851" cy="-250" rx="71.49" ry="18"/>
<text text-anchor="middle" x="1851" y="-246.3" font-family="Times,serif" font-size="14.00">Goob Station</text>
</g>
<!-- Space Station 14&#45;&gt;Goob Station -->
<g id="edge36" class="edge">
<title>Space Station 14&#45;&gt;Goob Station</title>
<path fill="none" stroke="black" d="M2571.88,-328.96C2444.56,-321.82 2164.6,-303.3 1931,-268 1924.83,-267.07 1918.41,-265.95 1912.03,-264.75"/>
<polygon fill="black" stroke="black" points="1902.05,-262.79 1912.73,-260.3 1906.95,-263.75 1911.86,-264.72 1911.86,-264.72 1911.86,-264.72 1906.95,-263.75 1911,-269.13 1902.05,-262.79 1902.05,-262.79"/>
</g>
<!-- Grey Station -->
<g id="node40" class="node">
<title>Grey Station</title>
<ellipse fill="none" stroke="black" cx="2010" cy="-250" rx="69.59" ry="18"/>
<text text-anchor="middle" x="2010" y="-246.3" font-family="Times,serif" font-size="14.00">Grey Station</text>
</g>
<!-- Space Station 14&#45;&gt;Grey Station -->
<g id="edge37" class="edge">
<title>Space Station 14&#45;&gt;Grey Station</title>
<path fill="none" stroke="black" d="M2571.72,-326.63C2466.69,-317.23 2261.04,-296.88 2088,-268 2082.13,-267.02 2076.04,-265.89 2069.96,-264.69"/>
<polygon fill="black" stroke="black" points="2059.79,-262.62 2070.49,-260.21 2064.69,-263.62 2069.59,-264.62 2069.59,-264.62 2069.59,-264.62 2064.69,-263.62 2068.69,-269.02 2059.79,-262.62 2059.79,-262.62"/>
</g>
<!-- Imperial Space -->
<g id="node41" class="node">
<title>Imperial Space</title>
<ellipse fill="none" stroke="black" cx="2178" cy="-250" rx="80.69" ry="18"/>
<text text-anchor="middle" x="2178" y="-246.3" font-family="Times,serif" font-size="14.00">Imperial Space</text>
</g>
<!-- Space Station 14&#45;&gt;Imperial Space -->
<g id="edge38" class="edge">
<title>Space Station 14&#45;&gt;Imperial Space</title>
<path fill="none" stroke="black" d="M2571.66,-320.92C2496.53,-308.29 2373.15,-287.29 2267,-268 2260.45,-266.81 2253.63,-265.55 2246.81,-264.27"/>
<polygon fill="black" stroke="black" points="2236.86,-262.4 2247.52,-259.82 2241.77,-263.32 2246.68,-264.25 2246.68,-264.25 2246.68,-264.25 2241.77,-263.32 2245.85,-268.67 2236.86,-262.4 2236.86,-262.4"/>
</g>
<!-- Mining Station 14 -->
<g id="node42" class="node">
<title>Mining Station 14</title>
<ellipse fill="none" stroke="black" cx="2371" cy="-250" rx="94.78" ry="18"/>
<text text-anchor="middle" x="2371" y="-246.3" font-family="Times,serif" font-size="14.00">Mining Station 14</text>
</g>
<!-- Space Station 14&#45;&gt;Mining Station 14 -->
<g id="edge39" class="edge">
<title>Space Station 14&#45;&gt;Mining Station 14</title>
<path fill="none" stroke="black" d="M2584.4,-315.41C2538.88,-301.67 2475.15,-282.44 2429.2,-268.57"/>
<polygon fill="black" stroke="black" points="2419.39,-265.61 2430.27,-264.19 2424.18,-267.05 2428.97,-268.5 2428.97,-268.5 2428.97,-268.5 2424.18,-267.05 2427.67,-272.81 2419.39,-265.61 2419.39,-265.61"/>
</g>
<!-- Mystic Station -->
<g id="node43" class="node">
<title>Mystic Station</title>
<ellipse fill="none" stroke="black" cx="2563" cy="-250" rx="78.79" ry="18"/>
<text text-anchor="middle" x="2563" y="-246.3" font-family="Times,serif" font-size="14.00">Mystic Station</text>
</g>
<!-- Space Station 14&#45;&gt;Mystic Station -->
<g id="edge40" class="edge">
<title>Space Station 14&#45;&gt;Mystic Station</title>
<path fill="none" stroke="black" d="M2624.46,-315.22C2613.24,-303.5 2598.27,-287.85 2585.91,-274.94"/>
<polygon fill="black" stroke="black" points="2578.98,-267.7 2589.15,-271.81 2582.44,-271.31 2585.9,-274.93 2585.9,-274.93 2585.9,-274.93 2582.44,-271.31 2582.65,-278.04 2578.98,-267.7 2578.98,-267.7"/>
</g>
<!-- Nova Luna -->
<g id="node44" class="node">
<title>Nova Luna</title>
<ellipse fill="none" stroke="black" cx="2720" cy="-250" rx="60.39" ry="18"/>
<text text-anchor="middle" x="2720" y="-246.3" font-family="Times,serif" font-size="14.00">Nova Luna</text>
</g>
<!-- Space Station 14&#45;&gt;Nova Luna -->
<g id="edge41" class="edge">
<title>Space Station 14&#45;&gt;Nova Luna</title>
<path fill="none" stroke="black" d="M2657.75,-315.22C2669.19,-303.42 2684.48,-287.64 2697.05,-274.68"/>
<polygon fill="black" stroke="black" points="2704.08,-267.43 2700.35,-277.74 2700.6,-271.02 2697.12,-274.61 2697.12,-274.61 2697.12,-274.61 2700.6,-271.02 2693.89,-271.47 2704.08,-267.43 2704.08,-267.43"/>
</g>
<!-- Nyanotrasen -->
<g id="node45" class="node">
<title>Nyanotrasen</title>
<ellipse fill="none" stroke="black" cx="2869" cy="-250" rx="70.39" ry="18"/>
<text text-anchor="middle" x="2869" y="-246.3" font-family="Times,serif" font-size="14.00">Nyanotrasen</text>
</g>
<!-- Space Station 14&#45;&gt;Nyanotrasen -->
<g id="edge42" class="edge">
<title>Space Station 14&#45;&gt;Nyanotrasen</title>
<path fill="none" stroke="black" d="M2688.8,-315.41C2727.32,-301.65 2781.27,-282.36 2820.09,-268.48"/>
<polygon fill="black" stroke="black" points="2829.61,-265.08 2821.71,-272.68 2824.9,-266.76 2820.19,-268.45 2820.19,-268.45 2820.19,-268.45 2824.9,-266.76 2818.68,-264.21 2829.61,-265.08 2829.61,-265.08"/>
</g>
<!-- OnyxBay14 -->
<g id="node46" class="node">
<title>OnyxBay14</title>
<ellipse fill="none" stroke="black" cx="3021" cy="-250" rx="63.89" ry="18"/>
<text text-anchor="middle" x="3021" y="-246.3" font-family="Times,serif" font-size="14.00">OnyxBay14</text>
</g>
<!-- Space Station 14&#45;&gt;OnyxBay14 -->
<g id="edge43" class="edge">
<title>Space Station 14&#45;&gt;OnyxBay14</title>
<path fill="none" stroke="black" d="M2710.29,-318.39C2772.57,-305.6 2866.51,-286.05 2948,-268 2953.24,-266.84 2958.69,-265.61 2964.14,-264.37"/>
<polygon fill="black" stroke="black" points="2973.91,-262.12 2965.17,-268.75 2969.04,-263.24 2964.16,-264.36 2964.16,-264.36 2964.16,-264.36 2969.04,-263.24 2963.16,-259.98 2973.91,-262.12 2973.91,-262.12"/>
</g>
<!-- Pirate Station -->
<g id="node47" class="node">
<title>Pirate Station</title>
<ellipse fill="none" stroke="black" cx="3178" cy="-250" rx="75.29" ry="18"/>
<text text-anchor="middle" x="3178" y="-246.3" font-family="Times,serif" font-size="14.00">Pirate Station</text>
</g>
<!-- Space Station 14&#45;&gt;Pirate Station -->
<g id="edge44" class="edge">
<title>Space Station 14&#45;&gt;Pirate Station</title>
<path fill="none" stroke="black" d="M2710.27,-323.91C2799.3,-312.58 2958.56,-291.33 3094,-268 3100.25,-266.92 3106.76,-265.73 3113.25,-264.5"/>
<polygon fill="black" stroke="black" points="3123.41,-262.53 3114.45,-268.85 3118.5,-263.48 3113.6,-264.43 3113.6,-264.43 3113.6,-264.43 3118.5,-263.48 3112.74,-260.01 3123.41,-262.53 3123.41,-262.53"/>
</g>
<!-- Prim14 -->
<g id="node48" class="node">
<title>Prim14</title>
<ellipse fill="none" stroke="black" cx="3316" cy="-250" rx="44.69" ry="18"/>
<text text-anchor="middle" x="3316" y="-246.3" font-family="Times,serif" font-size="14.00">Prim14</text>
</g>
<!-- Space Station 14&#45;&gt;Prim14 -->
<g id="edge45" class="edge">
<title>Space Station 14&#45;&gt;Prim14</title>
<path fill="none" stroke="black" d="M2710.15,-329.86C2825.57,-324.45 3064.32,-308.95 3262,-268 3265.84,-267.2 3269.8,-266.24 3273.74,-265.19"/>
<polygon fill="black" stroke="black" points="3283.44,-262.41 3275.06,-269.49 3278.63,-263.79 3273.83,-265.16 3273.83,-265.16 3273.83,-265.16 3278.63,-263.79 3272.59,-260.84 3283.44,-262.41 3283.44,-262.41"/>
</g>
<!-- Red Eclipse -->
<g id="node49" class="node">
<title>Red Eclipse</title>
<ellipse fill="none" stroke="black" cx="3444" cy="-250" rx="65.79" ry="18"/>
<text text-anchor="middle" x="3444" y="-246.3" font-family="Times,serif" font-size="14.00">Red Eclipse</text>
</g>
<!-- Space Station 14&#45;&gt;Red Eclipse -->
<g id="edge46" class="edge">
<title>Space Station 14&#45;&gt;Red Eclipse</title>
<path fill="none" stroke="black" d="M2710.24,-329.55C2840.22,-323.31 3129.37,-306.1 3370,-268 3375.67,-267.1 3381.56,-266.02 3387.42,-264.84"/>
<polygon fill="black" stroke="black" points="3397.21,-262.77 3388.36,-269.24 3392.32,-263.8 3387.43,-264.83 3387.43,-264.83 3387.43,-264.83 3392.32,-263.8 3386.5,-260.43 3397.21,-262.77 3397.21,-262.77"/>
</g>
<!-- RonStation -->
<g id="node50" class="node">
<title>RonStation</title>
<ellipse fill="none" stroke="black" cx="3590" cy="-250" rx="62.29" ry="18"/>
<text text-anchor="middle" x="3590" y="-246.3" font-family="Times,serif" font-size="14.00">RonStation</text>
</g>
<!-- Space Station 14&#45;&gt;RonStation -->
<g id="edge47" class="edge">
<title>Space Station 14&#45;&gt;RonStation</title>
<path fill="none" stroke="black" d="M2710.02,-331.22C2858.73,-327.63 3220.15,-314.44 3519,-268 3524.4,-267.16 3530,-266.12 3535.57,-264.97"/>
<polygon fill="black" stroke="black" points="3545.53,-262.81 3536.71,-269.33 3540.64,-263.87 3535.75,-264.93 3535.75,-264.93 3535.75,-264.93 3540.64,-263.87 3534.8,-260.54 3545.53,-262.81 3545.53,-262.81"/>
</g>
<!-- Rouny&#39;s Marine Corps -->
<g id="node51" class="node">
<title>Rouny&#39;s Marine Corps</title>
<ellipse fill="none" stroke="black" cx="3784" cy="-250" rx="113.98" ry="18"/>
<text text-anchor="middle" x="3784" y="-246.3" font-family="Times,serif" font-size="14.00">Rouny&#39;s Marine Corps</text>
</g>
<!-- Space Station 14&#45;&gt;Rouny&#39;s Marine Corps -->
<g id="edge48" class="edge">
<title>Space Station 14&#45;&gt;Rouny&#39;s Marine Corps</title>
<path fill="none" stroke="black" d="M2710.1,-329.9C2874.95,-323.32 3304.16,-303.89 3661,-268 3671.76,-266.92 3683.02,-265.61 3694.18,-264.2"/>
<polygon fill="black" stroke="black" points="3704.37,-262.88 3695.03,-268.63 3699.42,-263.52 3694.46,-264.16 3694.46,-264.16 3694.46,-264.16 3699.42,-263.52 3693.88,-259.7 3704.37,-262.88 3704.37,-262.88"/>
</g>
<!-- Sich -->
<g id="node52" class="node">
<title>Sich</title>
<ellipse fill="none" stroke="black" cx="3946" cy="-250" rx="30.59" ry="18"/>
<text text-anchor="middle" x="3946" y="-246.3" font-family="Times,serif" font-size="14.00">Sich</text>
</g>
<!-- Space Station 14&#45;&gt;Sich -->
<g id="edge49" class="edge">
<title>Space Station 14&#45;&gt;Sich</title>
<path fill="none" stroke="black" d="M2710.33,-329.66C2966.58,-319.06 3848.45,-281.77 3907,-268 3909.31,-267.46 3911.64,-266.78 3913.97,-266.02"/>
<polygon fill="black" stroke="black" points="3923.38,-262.49 3915.6,-270.22 3918.7,-264.25 3914.01,-266.01 3914.01,-266.01 3914.01,-266.01 3918.7,-264.25 3912.43,-261.79 3923.38,-262.49 3923.38,-262.49"/>
</g>
<!-- SS14SCP (Foundation 14) -->
<g id="node53" class="node">
<title>SS14SCP (Foundation 14)</title>
<ellipse fill="none" stroke="black" cx="4125" cy="-250" rx="130.78" ry="18"/>
<text text-anchor="middle" x="4125" y="-246.3" font-family="Times,serif" font-size="14.00">SS14SCP (Foundation 14)</text>
</g>
<!-- Space Station 14&#45;&gt;SS14SCP (Foundation 14) -->
<g id="edge50" class="edge">
<title>Space Station 14&#45;&gt;SS14SCP (Foundation 14)</title>
<path fill="none" stroke="black" d="M2710.05,-329.49C2966.87,-318.25 3858.61,-278.83 3986,-268 3998.42,-266.94 4011.45,-265.63 4024.34,-264.2"/>
<polygon fill="black" stroke="black" points="4034.63,-263.03 4025.2,-268.63 4029.66,-263.6 4024.69,-264.16 4024.69,-264.16 4024.69,-264.16 4029.66,-263.6 4024.18,-259.69 4034.63,-263.03 4034.63,-263.03"/>
</g>
<!-- SS14&#45;UA -->
<g id="node54" class="node">
<title>SS14&#45;UA</title>
<ellipse fill="none" stroke="black" cx="4325" cy="-250" rx="51.19" ry="18"/>
<text text-anchor="middle" x="4325" y="-246.3" font-family="Times,serif" font-size="14.00">SS14&#45;UA</text>
</g>
<!-- Space Station 14&#45;&gt;SS14&#45;UA -->
<g id="edge51" class="edge">
<title>Space Station 14&#45;&gt;SS14&#45;UA</title>
<path fill="none" stroke="black" d="M2710.18,-329.39C2855.52,-322.9 3203.25,-307.54 3495,-296 3666.09,-289.23 4095.86,-294.64 4265,-268 4269.45,-267.3 4274.04,-266.38 4278.61,-265.32"/>
<polygon fill="black" stroke="black" points="4288.5,-262.84 4279.9,-269.64 4283.65,-264.06 4278.8,-265.27 4278.8,-265.27 4278.8,-265.27 4283.65,-264.06 4277.71,-260.91 4288.5,-262.84 4288.5,-262.84"/>
</g>
<!-- SS220 -->
<g id="node55" class="node">
<title>SS220</title>
<ellipse fill="none" stroke="black" cx="4435" cy="-250" rx="40.09" ry="18"/>
<text text-anchor="middle" x="4435" y="-246.3" font-family="Times,serif" font-size="14.00">SS220</text>
</g>
<!-- Space Station 14&#45;&gt;SS220 -->
<g id="edge52" class="edge">
<title>Space Station 14&#45;&gt;SS220</title>
<path fill="none" stroke="black" d="M2710.17,-329.28C2855.5,-322.57 3203.23,-306.82 3495,-296 3692.74,-288.66 4190.31,-303.35 4385,-268 4388.64,-267.34 4392.38,-266.46 4396.09,-265.46"/>
<polygon fill="black" stroke="black" points="4405.77,-262.55 4397.49,-269.74 4400.98,-263.99 4396.2,-265.43 4396.2,-265.43 4396.2,-265.43 4400.98,-263.99 4394.9,-261.12 4405.77,-262.55 4405.77,-262.55"/>
</g>
<!-- Starshine -->
<g id="node56" class="node">
<title>Starshine</title>
<ellipse fill="none" stroke="black" cx="4549" cy="-250" rx="55.79" ry="18"/>
<text text-anchor="middle" x="4549" y="-246.3" font-family="Times,serif" font-size="14.00">Starshine</text>
</g>
<!-- Space Station 14&#45;&gt;Starshine -->
<g id="edge53" class="edge">
<title>Space Station 14&#45;&gt;Starshine</title>
<path fill="none" stroke="black" d="M2710.17,-329.21C2855.49,-322.36 3203.21,-306.37 3495,-296 3714.73,-288.19 4266.35,-299.13 4484,-268 4489.07,-267.28 4494.31,-266.3 4499.51,-265.18"/>
<polygon fill="black" stroke="black" points="4509.42,-262.88 4500.69,-269.53 4504.55,-264.01 4499.68,-265.14 4499.68,-265.14 4499.68,-265.14 4504.55,-264.01 4498.66,-260.76 4509.42,-262.88 4509.42,-262.88"/>
</g>
<!-- Thanatophobia -->
<g id="node57" class="node">
<title>Thanatophobia</title>
<ellipse fill="none" stroke="black" cx="4702" cy="-250" rx="79.09" ry="18"/>
<text text-anchor="middle" x="4702" y="-246.3" font-family="Times,serif" font-size="14.00">Thanatophobia</text>
</g>
<!-- Space Station 14&#45;&gt;Thanatophobia -->
<g id="edge54" class="edge">
<title>Space Station 14&#45;&gt;Thanatophobia</title>
<path fill="none" stroke="black" d="M2710.17,-329.13C2855.49,-322.14 3203.19,-305.89 3495,-296 3743.6,-287.58 4366.7,-294.79 4614,-268 4621.42,-267.2 4629.15,-266.1 4636.82,-264.84"/>
<polygon fill="black" stroke="black" points="4646.82,-263.11 4637.73,-269.25 4641.89,-263.96 4636.97,-264.81 4636.97,-264.81 4636.97,-264.81 4641.89,-263.96 4636.2,-260.38 4646.82,-263.11 4646.82,-263.11"/>
</g>
<!-- Trieste Port -->
<g id="node58" class="node">
<title>Trieste Port</title>
<ellipse fill="none" stroke="black" cx="4865" cy="-250" rx="65.79" ry="18"/>
<text text-anchor="middle" x="4865" y="-246.3" font-family="Times,serif" font-size="14.00">Trieste Port</text>
</g>
<!-- Space Station 14&#45;&gt;Trieste Port -->
<g id="edge55" class="edge">
<title>Space Station 14&#45;&gt;Trieste Port</title>
<path fill="none" stroke="black" d="M2710.17,-329.05C2855.48,-321.91 3203.18,-305.39 3495,-296 3782.7,-286.74 4504.3,-303.1 4790,-268 4796.17,-267.24 4802.59,-266.2 4808.94,-264.99"/>
<polygon fill="black" stroke="black" points="4818.85,-262.99 4809.94,-269.38 4813.95,-263.98 4809.05,-264.97 4809.05,-264.97 4809.05,-264.97 4813.95,-263.98 4808.15,-260.56 4818.85,-262.99 4818.85,-262.99"/>
</g>
<!-- Western -->
<g id="node59" class="node">
<title>Western</title>
<ellipse fill="none" stroke="black" cx="4998" cy="-250" rx="49.29" ry="18"/>
<text text-anchor="middle" x="4998" y="-246.3" font-family="Times,serif" font-size="14.00">Western</text>
</g>
<!-- Space Station 14&#45;&gt;Western -->
<g id="edge56" class="edge">
<title>Space Station 14&#45;&gt;Western</title>
<path fill="none" stroke="black" d="M2710.16,-329C2855.47,-321.75 3203.17,-305.06 3495,-296 3655.51,-291.02 4781.27,-292.35 4940,-268 4944.38,-267.33 4948.89,-266.42 4953.37,-265.36"/>
<polygon fill="black" stroke="black" points="4963.07,-262.86 4954.51,-269.71 4958.22,-264.11 4953.38,-265.36 4953.38,-265.36 4953.38,-265.36 4958.22,-264.11 4952.26,-261 4963.07,-262.86 4963.07,-262.86"/>
</g>
<!-- Einstein Engines (AGPLv3) -->
<g id="node4" class="node">
<title>Einstein Engines (AGPLv3)</title>
<polygon fill="none" stroke="blue" points="1828,-196 1618,-196 1618,-160 1828,-160 1828,-196"/>
<text text-anchor="middle" x="1723" y="-174.3" font-family="Times,serif" font-size="14.00">Einstein Engines (AGPLv3)</text>
</g>
<!-- Barotrauma Station 14 -->
<g id="node17" class="node">
<title>Barotrauma Station 14</title>
<ellipse fill="none" stroke="black" cx="1156" cy="-106" rx="117.78" ry="18"/>
<text text-anchor="middle" x="1156" y="-102.3" font-family="Times,serif" font-size="14.00">Barotrauma Station 14</text>
</g>
<!-- Einstein Engines (AGPLv3)&#45;&gt;Barotrauma Station 14 -->
<g id="edge12" class="edge">
<title>Einstein Engines (AGPLv3)&#45;&gt;Barotrauma Station 14</title>
<path fill="none" stroke="black" d="M1617.74,-161.15C1614.79,-160.76 1611.88,-160.37 1609,-160 1464.44,-141.25 1427.69,-141.67 1283,-124 1272.43,-122.71 1261.38,-121.31 1250.39,-119.88"/>
<polygon fill="black" stroke="black" points="1240.33,-118.57 1250.83,-115.4 1245.29,-119.21 1250.25,-119.86 1250.25,-119.86 1250.25,-119.86 1245.29,-119.21 1249.67,-124.32 1240.33,-118.57 1240.33,-118.57"/>
</g>
<!-- Central Command Station -->
<g id="node18" class="node">
<title>Central Command Station</title>
<ellipse fill="none" stroke="black" cx="1424" cy="-106" rx="131.88" ry="18"/>
<text text-anchor="middle" x="1424" y="-102.3" font-family="Times,serif" font-size="14.00">Central Command Station</text>
</g>
<!-- Einstein Engines (AGPLv3)&#45;&gt;Central Command Station -->
<g id="edge13" class="edge">
<title>Einstein Engines (AGPLv3)&#45;&gt;Central Command Station</title>
<path fill="none" stroke="black" d="M1650.24,-159.97C1603.86,-149.11 1543.96,-135.08 1497.44,-124.19"/>
<polygon fill="black" stroke="black" points="1487.43,-121.85 1498.2,-119.75 1492.3,-122.99 1497.17,-124.13 1497.17,-124.13 1497.17,-124.13 1492.3,-122.99 1496.14,-128.51 1487.43,-121.85 1487.43,-121.85"/>
</g>
<!-- Deep Station -->
<g id="node19" class="node">
<title>Deep Station</title>
<ellipse fill="none" stroke="black" cx="1645" cy="-106" rx="71.49" ry="18"/>
<text text-anchor="middle" x="1645" y="-102.3" font-family="Times,serif" font-size="14.00">Deep Station</text>
</g>
<!-- Einstein Engines (AGPLv3)&#45;&gt;Deep Station -->
<g id="edge14" class="edge">
<title>Einstein Engines (AGPLv3)&#45;&gt;Deep Station</title>
<path fill="none" stroke="black" d="M1703.72,-159.7C1693.84,-150.84 1681.68,-139.92 1670.99,-130.33"/>
<polygon fill="black" stroke="black" points="1663.52,-123.62 1673.97,-126.95 1667.24,-126.96 1670.96,-130.3 1670.96,-130.3 1670.96,-130.3 1667.24,-126.96 1667.96,-133.65 1663.52,-123.62 1663.52,-123.62"/>
</g>
<!-- Floofstation -->
<g id="node20" class="node">
<title>Floofstation</title>
<ellipse fill="none" stroke="black" cx="1801" cy="-106" rx="66.09" ry="18"/>
<text text-anchor="middle" x="1801" y="-102.3" font-family="Times,serif" font-size="14.00">Floofstation</text>
</g>
<!-- Einstein Engines (AGPLv3)&#45;&gt;Floofstation -->
<g id="edge15" class="edge">
<title>Einstein Engines (AGPLv3)&#45;&gt;Floofstation</title>
<path fill="none" stroke="black" d="M1742.28,-159.7C1752.23,-150.77 1764.5,-139.76 1775.24,-130.11"/>
<polygon fill="black" stroke="black" points="1782.74,-123.38 1778.31,-133.41 1779.02,-126.72 1775.3,-130.06 1775.3,-130.06 1775.3,-130.06 1779.02,-126.72 1772.3,-126.71 1782.74,-123.38 1782.74,-123.38"/>
</g>
<!-- Grand Salvation -->
<g id="node21" class="node">
<title>Grand Salvation</title>
<ellipse fill="none" stroke="black" cx="1971" cy="-106" rx="85.59" ry="18"/>
<text text-anchor="middle" x="1971" y="-102.3" font-family="Times,serif" font-size="14.00">Grand Salvation</text>
</g>
<!-- Einstein Engines (AGPLv3)&#45;&gt;Grand Salvation -->
<g id="edge16" class="edge">
<title>Einstein Engines (AGPLv3)&#45;&gt;Grand Salvation</title>
<path fill="none" stroke="black" d="M1783.35,-159.97C1822.44,-148.93 1873.11,-134.63 1911.94,-123.67"/>
<polygon fill="black" stroke="black" points="1922.05,-120.82 1913.65,-127.86 1917.24,-122.18 1912.42,-123.53 1912.42,-123.53 1912.42,-123.53 1917.24,-122.18 1911.2,-119.2 1922.05,-120.82 1922.05,-120.82"/>
</g>
<!-- Nuclear 14 -->
<g id="node22" class="node">
<title>Nuclear 14</title>
<ellipse fill="none" stroke="black" cx="2137" cy="-106" rx="61.99" ry="18"/>
<text text-anchor="middle" x="2137" y="-102.3" font-family="Times,serif" font-size="14.00">Nuclear 14</text>
</g>
<!-- Einstein Engines (AGPLv3)&#45;&gt;Nuclear 14 -->
<g id="edge17" class="edge">
<title>Einstein Engines (AGPLv3)&#45;&gt;Nuclear 14</title>
<path fill="none" stroke="black" d="M1828.13,-161.2C1920.22,-147.28 2042.91,-128.54 2066,-124 2071.29,-122.96 2076.77,-121.8 2082.25,-120.58"/>
<polygon fill="black" stroke="black" points="2092.05,-118.35 2083.3,-124.96 2087.17,-119.46 2082.3,-120.57 2082.3,-120.57 2082.3,-120.57 2087.17,-119.46 2081.3,-116.18 2092.05,-118.35 2092.05,-118.35"/>
</g>
<!-- Parkstation -->
<g id="node23" class="node">
<title>Parkstation</title>
<ellipse fill="none" stroke="black" cx="2294" cy="-106" rx="63.89" ry="18"/>
<text text-anchor="middle" x="2294" y="-102.3" font-family="Times,serif" font-size="14.00">Parkstation</text>
</g>
<!-- Einstein Engines (AGPLv3)&#45;&gt;Parkstation -->
<g id="edge18" class="edge">
<title>Einstein Engines (AGPLv3)&#45;&gt;Parkstation</title>
<path fill="none" stroke="black" d="M1828.26,-161.1C1831.2,-160.72 1834.12,-160.35 1837,-160 2001.42,-139.78 2044.1,-148.09 2208,-124 2216.75,-122.71 2225.96,-121.13 2234.97,-119.46"/>
<polygon fill="black" stroke="black" points="2245.03,-117.55 2236.05,-123.84 2240.12,-118.48 2235.2,-119.42 2235.2,-119.42 2235.2,-119.42 2240.12,-118.48 2234.36,-115 2245.03,-117.55 2245.03,-117.55"/>
</g>
<!-- Adventure Space -->
<g id="node6" class="node">
<title>Adventure Space</title>
<ellipse fill="none" stroke="black" cx="106" cy="-178" rx="89.88" ry="18"/>
<text text-anchor="middle" x="106" y="-174.3" font-family="Times,serif" font-size="14.00">Adventure Space</text>
</g>
<!-- Corvax&#45;&gt;Adventure Space -->
<g id="edge1" class="edge">
<title>Corvax&#45;&gt;Adventure Space</title>
<path fill="none" stroke="black" d="M70.9,-232.41C76.38,-224.08 83.13,-213.8 89.25,-204.49"/>
<polygon fill="black" stroke="black" points="94.86,-195.96 93.13,-206.78 92.11,-200.13 89.37,-204.31 89.37,-204.31 89.37,-204.31 92.11,-200.13 85.6,-201.84 94.86,-195.96 94.86,-195.96"/>
</g>
<!-- Backmen -->
<g id="node7" class="node">
<title>Backmen</title>
<ellipse fill="none" stroke="black" cx="267" cy="-178" rx="53.09" ry="18"/>
<text text-anchor="middle" x="267" y="-174.3" font-family="Times,serif" font-size="14.00">Backmen</text>
</g>
<!-- Corvax&#45;&gt;Backmen -->
<g id="edge2" class="edge">
<title>Corvax&#45;&gt;Backmen</title>
<path fill="none" stroke="black" d="M92.8,-237.91C127.38,-226.22 182.12,-207.7 221,-194.56"/>
<polygon fill="black" stroke="black" points="230.52,-191.34 222.49,-198.8 225.78,-192.94 221.05,-194.54 221.05,-194.54 221.05,-194.54 225.78,-192.94 219.61,-190.28 230.52,-191.34 230.52,-191.34"/>
</g>
<!-- Bluespace Station -->
<g id="node8" class="node">
<title>Bluespace Station</title>
<ellipse fill="none" stroke="black" cx="433" cy="-178" rx="94.78" ry="18"/>
<text text-anchor="middle" x="433" y="-174.3" font-family="Times,serif" font-size="14.00">Bluespace Station</text>
</g>
<!-- Corvax&#45;&gt;Bluespace Station -->
<g id="edge3" class="edge">
<title>Corvax&#45;&gt;Bluespace Station</title>
<path fill="none" stroke="black" d="M92.3,-237.81C99.09,-235.7 106.24,-233.64 113,-232 118.88,-230.58 260.89,-207.21 353.73,-191.98"/>
<polygon fill="black" stroke="black" points="363.68,-190.35 354.54,-196.41 358.74,-191.16 353.81,-191.97 353.81,-191.97 353.81,-191.97 358.74,-191.16 353.08,-187.53 363.68,-190.35 363.68,-190.35"/>
</g>
<!-- Corvax &#45; S.T.A.L.K.E.R. -->
<g id="node9" class="node">
<title>Corvax &#45; S.T.A.L.K.E.R.</title>
<ellipse fill="none" stroke="black" cx="662" cy="-178" rx="116.18" ry="18"/>
<text text-anchor="middle" x="662" y="-174.3" font-family="Times,serif" font-size="14.00">Corvax &#45; S.T.A.L.K.E.R.</text>
</g>
<!-- Corvax&#45;&gt;Corvax &#45; S.T.A.L.K.E.R. -->
<g id="edge4" class="edge">
<title>Corvax&#45;&gt;Corvax &#45; S.T.A.L.K.E.R.</title>
<path fill="none" stroke="black" d="M91.64,-237.57C98.6,-235.42 105.99,-233.4 113,-232 298.44,-194.88 349.02,-216.75 537,-196 547.58,-194.83 558.66,-193.49 569.65,-192.09"/>
<polygon fill="black" stroke="black" points="579.71,-190.79 570.37,-196.54 574.75,-191.43 569.79,-192.08 569.79,-192.08 569.79,-192.08 574.75,-191.43 569.21,-187.61 579.71,-190.79 579.71,-190.79"/>
</g>
<!-- Dark Station -->
<g id="node10" class="node">
<title>Dark Station</title>
<ellipse fill="none" stroke="black" cx="866" cy="-178" rx="69.59" ry="18"/>
<text text-anchor="middle" x="866" y="-174.3" font-family="Times,serif" font-size="14.00">Dark Station</text>
</g>
<!-- Corvax&#45;&gt;Dark Station -->
<g id="edge5" class="edge">
<title>Corvax&#45;&gt;Dark Station</title>
<path fill="none" stroke="black" d="M91.33,-237.49C98.37,-235.31 105.87,-233.31 113,-232 408.03,-177.74 489.65,-235.68 787,-196 793.39,-195.15 800.03,-194.05 806.62,-192.83"/>
<polygon fill="black" stroke="black" points="816.91,-190.82 807.95,-197.16 812,-191.78 807.09,-192.74 807.09,-192.74 807.09,-192.74 812,-191.78 806.23,-188.32 816.91,-190.82 816.91,-190.82"/>
</g>
<!-- Dead Space -->
<g id="node11" class="node">
<title>Dead Space</title>
<ellipse fill="none" stroke="black" cx="1019" cy="-178" rx="65.79" ry="18"/>
<text text-anchor="middle" x="1019" y="-174.3" font-family="Times,serif" font-size="14.00">Dead Space</text>
</g>
<!-- Corvax&#45;&gt;Dead Space -->
<g id="edge6" class="edge">
<title>Corvax&#45;&gt;Dead Space</title>
<path fill="none" stroke="black" d="M91.32,-237.43C98.36,-235.26 105.87,-233.27 113,-232 477.35,-166.9 578.22,-245.64 945,-196 950.86,-195.21 956.93,-194.17 962.97,-193"/>
<polygon fill="black" stroke="black" points="973.05,-190.92 964.17,-197.35 968.16,-191.93 963.26,-192.94 963.26,-192.94 963.26,-192.94 968.16,-191.93 962.35,-188.53 973.05,-190.92 973.05,-190.92"/>
</g>
<!-- Gravity Gate -->
<g id="node12" class="node">
<title>Gravity Gate</title>
<ellipse fill="none" stroke="black" cx="1173" cy="-178" rx="70.39" ry="18"/>
<text text-anchor="middle" x="1173" y="-174.3" font-family="Times,serif" font-size="14.00">Gravity Gate</text>
</g>
<!-- Corvax&#45;&gt;Gravity Gate -->
<g id="edge7" class="edge">
<title>Corvax&#45;&gt;Gravity Gate</title>
<path fill="none" stroke="black" d="M91.31,-237.4C98.36,-235.23 105.86,-233.25 113,-232 542.74,-156.67 661.07,-250.1 1094,-196 1100.39,-195.2 1107.04,-194.14 1113.64,-192.94"/>
<polygon fill="black" stroke="black" points="1123.92,-190.95 1114.96,-197.27 1119.01,-191.9 1114.1,-192.85 1114.1,-192.85 1114.1,-192.85 1119.01,-191.9 1113.25,-188.43 1123.92,-190.95 1123.92,-190.95"/>
</g>
<!-- Lost Paradise -->
<g id="node13" class="node">
<title>Lost Paradise</title>
<ellipse fill="none" stroke="black" cx="1335" cy="-178" rx="73.39" ry="18"/>
<text text-anchor="middle" x="1335" y="-174.3" font-family="Times,serif" font-size="14.00">Lost Paradise</text>
</g>
<!-- Corvax&#45;&gt;Lost Paradise -->
<g id="edge8" class="edge">
<title>Corvax&#45;&gt;Lost Paradise</title>
<path fill="none" stroke="black" d="M91.31,-237.37C98.35,-235.2 105.86,-233.23 113,-232 612.09,-145.82 748.98,-255.03 1252,-196 1258.87,-195.19 1266.02,-194.11 1273.11,-192.88"/>
<polygon fill="black" stroke="black" points="1283.42,-190.98 1274.4,-197.22 1278.5,-191.89 1273.58,-192.79 1273.58,-192.79 1273.58,-192.79 1278.5,-191.89 1272.77,-188.36 1283.42,-190.98 1283.42,-190.98"/>
</g>
<!-- Sirena -->
<g id="node14" class="node">
<title>Sirena</title>
<ellipse fill="none" stroke="black" cx="1467" cy="-178" rx="40.89" ry="18"/>
<text text-anchor="middle" x="1467" y="-174.3" font-family="Times,serif" font-size="14.00">Sirena</text>
</g>
<!-- Corvax&#45;&gt;Sirena -->
<g id="edge9" class="edge">
<title>Corvax&#45;&gt;Sirena</title>
<path fill="none" stroke="black" d="M91.3,-237.35C98.35,-235.18 105.86,-233.22 113,-232 684.52,-134.49 846.35,-298.47 1417,-196 1420.49,-195.37 1424.07,-194.55 1427.62,-193.6"/>
<polygon fill="black" stroke="black" points="1437.51,-190.66 1429.21,-197.82 1432.72,-192.08 1427.93,-193.51 1427.93,-193.51 1427.93,-193.51 1432.72,-192.08 1426.64,-189.2 1437.51,-190.66 1437.51,-190.66"/>
</g>
<!-- Theta -->
<g id="node15" class="node">
<title>Theta</title>
<ellipse fill="none" stroke="black" cx="1563" cy="-178" rx="37.09" ry="18"/>
<text text-anchor="middle" x="1563" y="-174.3" font-family="Times,serif" font-size="14.00">Theta</text>
</g>
<!-- Corvax&#45;&gt;Theta -->
<g id="edge10" class="edge">
<title>Corvax&#45;&gt;Theta</title>
<path fill="none" stroke="black" d="M91.3,-237.34C98.35,-235.17 105.85,-233.21 113,-232 420.71,-179.81 1210.5,-254.89 1517,-196 1520.18,-195.39 1523.42,-194.59 1526.65,-193.66"/>
<polygon fill="black" stroke="black" points="1536.18,-190.58 1528.05,-197.94 1531.42,-192.12 1526.66,-193.66 1526.66,-193.66 1526.66,-193.66 1531.42,-192.12 1525.28,-189.37 1536.18,-190.58 1536.18,-190.58"/>
</g>
<!-- Lost Paradise &#45; S.T.A.L.K.E.R. -->
<g id="node28" class="node">
<title>Lost Paradise &#45; S.T.A.L.K.E.R.</title>
<ellipse fill="none" stroke="black" cx="874" cy="-106" rx="146.47" ry="18"/>
<text text-anchor="middle" x="874" y="-102.3" font-family="Times,serif" font-size="14.00">Lost Paradise &#45; S.T.A.L.K.E.R.</text>
</g>
<!-- Lost Paradise&#45;&gt;Lost Paradise &#45; S.T.A.L.K.E.R. -->
<g id="edge22" class="edge">
<title>Lost Paradise&#45;&gt;Lost Paradise &#45; S.T.A.L.K.E.R.</title>
<path fill="none" stroke="black" d="M1281.52,-165.53C1271.72,-163.58 1261.57,-161.65 1252,-160 1162,-144.49 1059.36,-130.32 983.76,-120.54"/>
<polygon fill="black" stroke="black" points="973.75,-119.25 984.24,-116.07 978.71,-119.89 983.67,-120.53 983.67,-120.53 983.67,-120.53 978.71,-119.89 983.09,-124.99 973.75,-119.25 973.75,-119.25"/>
</g>
<!-- Delta&#45;V&#45;&gt;Einstein Engines (AGPLv3) -->
<g id="edge11" class="edge">
<title>Delta&#45;V&#45;&gt;Einstein Engines (AGPLv3)</title>
<path fill="none" stroke="black" d="M197.58,-237.25C204.55,-235.12 211.95,-233.2 219,-232 520.36,-180.85 1284.52,-221.93 1607.41,-196.04"/>
<polygon fill="black" stroke="black" points="1617.77,-195.17 1608.18,-200.49 1612.79,-195.59 1607.81,-196 1607.81,-196 1607.81,-196 1612.79,-195.59 1607.43,-191.52 1617.77,-195.17 1617.77,-195.17"/>
</g>
<!-- Corvax &#45; Fallout -->
<g id="node29" class="node">
<title>Corvax &#45; Fallout</title>
<ellipse fill="none" stroke="black" cx="2130" cy="-34" rx="84.49" ry="18"/>
<text text-anchor="middle" x="2130" y="-30.3" font-family="Times,serif" font-size="14.00">Corvax &#45; Fallout</text>
</g>
<!-- Nuclear 14&#45;&gt;Corvax &#45; Fallout -->
<g id="edge23" class="edge">
<title>Nuclear 14&#45;&gt;Corvax &#45; Fallout</title>
<path fill="none" stroke="black" d="M2135.27,-87.7C2134.5,-79.98 2133.57,-70.71 2132.71,-62.11"/>
<polygon fill="black" stroke="black" points="2131.71,-52.1 2137.18,-61.61 2132.21,-57.08 2132.71,-62.05 2132.71,-62.05 2132.71,-62.05 2132.21,-57.08 2128.23,-62.5 2131.71,-52.1 2131.71,-52.1"/>
</g>
<!-- Caldera Site -->
<g id="node30" class="node">
<title>Caldera Site</title>
<ellipse fill="none" stroke="black" cx="2301" cy="-34" rx="68.49" ry="18"/>
<text text-anchor="middle" x="2301" y="-30.3" font-family="Times,serif" font-size="14.00">Caldera Site</text>
</g>
<!-- Parkstation&#45;&gt;Caldera Site -->
<g id="edge24" class="edge">
<title>Parkstation&#45;&gt;Caldera Site</title>
<path fill="none" stroke="black" d="M2295.73,-87.7C2296.5,-79.98 2297.43,-70.71 2298.29,-62.11"/>
<polygon fill="black" stroke="black" points="2299.29,-52.1 2302.77,-62.5 2298.79,-57.08 2298.29,-62.05 2298.29,-62.05 2298.29,-62.05 2298.79,-57.08 2293.82,-61.61 2299.29,-52.1 2299.29,-52.1"/>
</g>
<!-- Corvax &#45; Frontier -->
<g id="node25" class="node">
<title>Corvax &#45; Frontier</title>
<ellipse fill="none" stroke="black" cx="1937" cy="-178" rx="90.98" ry="18"/>
<text text-anchor="middle" x="1937" y="-174.3" font-family="Times,serif" font-size="14.00">Corvax &#45; Frontier</text>
</g>
<!-- Frontier Station 14&#45;&gt;Corvax &#45; Frontier -->
<g id="edge19" class="edge">
<title>Frontier Station 14&#45;&gt;Corvax &#45; Frontier</title>
<path fill="none" stroke="black" d="M398.37,-236.9C411.81,-234.95 425.82,-233.18 439,-232 1058.05,-176.42 1218.39,-256.24 1837,-196 1845.88,-195.14 1855.16,-193.95 1864.34,-192.6"/>
<polygon fill="black" stroke="black" points="1874.24,-191.08 1865.04,-197.04 1869.3,-191.84 1864.35,-192.6 1864.35,-192.6 1864.35,-192.6 1869.3,-191.84 1863.67,-188.15 1874.24,-191.08 1874.24,-191.08"/>
</g>
<!-- Frontier PT -->
<g id="node26" class="node">
<title>Frontier PT</title>
<ellipse fill="none" stroke="black" cx="2110" cy="-178" rx="64.19" ry="18"/>
<text text-anchor="middle" x="2110" y="-174.3" font-family="Times,serif" font-size="14.00">Frontier PT</text>
</g>
<!-- Frontier Station 14&#45;&gt;Frontier PT -->
<g id="edge20" class="edge">
<title>Frontier Station 14&#45;&gt;Frontier PT</title>
<path fill="none" stroke="black" d="M398.37,-236.87C411.81,-234.92 425.81,-233.16 439,-232 1146.66,-169.62 1332.2,-285.04 2037,-196 2042.87,-195.26 2048.96,-194.24 2055.01,-193.08"/>
<polygon fill="black" stroke="black" points="2065.09,-190.99 2056.21,-197.42 2060.2,-192 2055.3,-193.02 2055.3,-193.02 2055.3,-193.02 2060.2,-192 2054.39,-188.61 2065.09,-190.99 2065.09,-190.99"/>
</g>
<!-- Hullrot -->
<g id="node27" class="node">
<title>Hullrot</title>
<ellipse fill="none" stroke="black" cx="2237" cy="-178" rx="44.39" ry="18"/>
<text text-anchor="middle" x="2237" y="-174.3" font-family="Times,serif" font-size="14.00">Hullrot</text>
</g>
<!-- Frontier Station 14&#45;&gt;Hullrot -->
<g id="edge21" class="edge">
<title>Frontier Station 14&#45;&gt;Hullrot</title>
<path fill="none" stroke="black" d="M398.07,-236.89C411.6,-234.93 425.72,-233.16 439,-232 825.17,-198.32 1800.49,-258.84 2183,-196 2187.15,-195.32 2191.41,-194.39 2195.65,-193.32"/>
<polygon fill="black" stroke="black" points="2205.38,-190.6 2196.96,-197.62 2200.57,-191.94 2195.75,-193.29 2195.75,-193.29 2195.75,-193.29 2200.57,-191.94 2194.54,-188.95 2205.38,-190.6 2205.38,-190.6"/>
</g>
</g>
</svg>
